<?xml version="1.0" encoding="UTF-8"?>
<svg version="1.1" xmlns="http://www.w3.org/2000/svg" width="100" height="100">
<path d="M0 0 C3.97400317 2.3844019 6.771436 5.24955556 9.4453125 9.0546875 C10.4353125 10.0446875 10.4353125 10.0446875 11.4453125 11.0546875 C11.640625 13.21875 11.640625 13.21875 11.5703125 15.6796875 C11.55226563 16.49695313 11.53421875 17.31421875 11.515625 18.15625 C11.49242188 18.78273438 11.46921875 19.40921875 11.4453125 20.0546875 C12.04988281 20.15910156 12.65445313 20.26351562 13.27734375 20.37109375 C16.78231705 21.47626551 18.28942377 24.19959161 20.4453125 27.0546875 C21.63548241 29.43502732 21.72523306 31.28087421 21.9453125 33.9296875 C22.31880179 38.56415943 22.31880179 38.56415943 23.4453125 43.0546875 C25.4290892 44.33905484 25.4290892 44.33905484 27.4453125 45.0546875 C27.4453125 47.0346875 27.4453125 49.0146875 27.4453125 51.0546875 C26.8265625 51.2815625 26.2078125 51.5084375 25.5703125 51.7421875 C22.80739923 53.44869276 22.60535431 55.08208036 21.4453125 58.0546875 C18.44321593 61.28771458 15.70199656 61.25335334 11.4453125 61.60546875 C9.07408003 61.96803765 9.07408003 61.96803765 6.5703125 64.6171875 C2.70932159 67.62876041 0.55371212 67.55132737 -4.1875 67.42578125 C-6.66164152 67.03792078 -8.39348195 66.29464184 -10.5546875 65.0546875 C-11.4828125 65.8590625 -12.4109375 66.6634375 -13.3671875 67.4921875 C-18.9158011 72.30098595 -25.56437568 71.50400297 -32.5546875 71.0546875 C-38.39157686 69.3252388 -42.03449791 64.86464353 -45.5546875 60.0546875 C-46.7124381 56.58143569 -46.62335402 53.69401302 -46.5546875 50.0546875 C-47.885 50.209375 -47.885 50.209375 -49.2421875 50.3671875 C-53.57950482 49.95800662 -54.78995467 48.29337453 -57.5546875 45.0546875 C-57.8846875 44.7246875 -58.2146875 44.3946875 -58.5546875 44.0546875 C-58.92863324 38.31352059 -58.53826047 32.71023206 -57.5546875 27.0546875 C-56.2346875 26.7246875 -54.9146875 26.3946875 -53.5546875 26.0546875 C-53.5546875 25.3946875 -53.5546875 24.7346875 -53.5546875 24.0546875 C-52.2346875 24.0546875 -50.9146875 24.0546875 -49.5546875 24.0546875 C-49.2246875 22.7346875 -48.8946875 21.4146875 -48.5546875 20.0546875 C-47.8946875 20.0546875 -47.2346875 20.0546875 -46.5546875 20.0546875 C-46.2246875 19.0646875 -45.8946875 18.0746875 -45.5546875 17.0546875 C-42.24482221 14.27867145 -39.71543502 13.96019974 -35.5546875 13.8671875 C-31.7937167 13.6449941 -31.7937167 13.6449941 -28.97265625 11.359375 C-28.15259271 9.94834503 -27.3720322 8.51360716 -26.6328125 7.05859375 C-21.68788318 -2.13252488 -8.91122307 -3.29742505 0 0 Z " fill="#C6ECE5" transform="translate(67.5546875,14.9453125)"/>
<path d="M0 0 C2.85735658 1.81495057 4.71260388 3.97748226 6.73046875 6.66796875 C8.1656898 8.40812346 9.50942169 9.41434053 11.421875 10.58984375 C14.109375 12.33984375 14.109375 12.33984375 15.109375 15.33984375 C16.759375 15.66984375 18.409375 15.99984375 20.109375 16.33984375 C18.624375 16.83484375 18.624375 16.83484375 17.109375 17.33984375 C17.17125 18.55671875 17.233125 19.77359375 17.296875 21.02734375 C17.30378101 24.92233578 16.56999825 27.216745 14.109375 30.33984375 C13.119375 30.83484375 13.119375 30.83484375 12.109375 31.33984375 C14.749375 31.66984375 17.389375 31.99984375 20.109375 32.33984375 C20.109375 32.66984375 20.109375 32.99984375 20.109375 33.33984375 C17.139375 33.33984375 14.169375 33.33984375 11.109375 33.33984375 C11.604375 36.30984375 11.604375 36.30984375 12.109375 39.33984375 C10.484375 40.02734375 10.484375 40.02734375 8.109375 40.33984375 C2.83351293 38.06398168 2.83351293 38.06398168 1.109375 36.33984375 C-1.21880464 35.97223644 -3.5524635 35.63742794 -5.890625 35.33984375 C-5.890625 35.00984375 -5.890625 34.67984375 -5.890625 34.33984375 C0.61250709 33.87533432 4.5268558 35.01408763 10.109375 38.33984375 C9.820625 37.32921875 9.531875 36.31859375 9.234375 35.27734375 C9.109375 31.33984375 9.109375 31.33984375 10.37890625 29.52734375 C11.49209752 28.35940537 12.60799474 27.1940402 13.7265625 26.03125 C15.37982699 24.28849807 15.37982699 24.28849807 15.671875 21.21484375 C15.04204516 17.99571344 14.06043086 15.9662651 12.109375 13.33984375 C11.449375 13.00984375 10.789375 12.67984375 10.109375 12.33984375 C9.903125 13.51546875 9.696875 14.69109375 9.484375 15.90234375 C8.0430912 21.55738087 5.00708541 25.50091215 0.078125 28.62890625 C-3.18910823 30.32347871 -6.29758813 31.52542206 -9.890625 32.33984375 C-8.900625 32.99984375 -7.910625 33.65984375 -6.890625 34.33984375 C-7.58027344 34.22125 -8.26992188 34.10265625 -8.98046875 33.98046875 C-15.28765941 33.11528485 -19.30840874 33.33656563 -24.91796875 36.4296875 C-26.890625 37.33984375 -26.890625 37.33984375 -30.890625 37.33984375 C-30.82101563 36.69917969 -30.75140625 36.05851562 -30.6796875 35.3984375 C-30.25994258 30.1213727 -30.25994258 30.1213727 -32.19140625 25.36328125 C-33.27468325 24.23088191 -34.37363349 23.113253 -35.48828125 22.01171875 C-37.7761031 19.28417626 -37.74846755 16.82270134 -37.890625 13.33984375 C-31.950625 12.84484375 -31.950625 12.84484375 -25.890625 12.33984375 C-26.220625 10.68984375 -26.550625 9.03984375 -26.890625 7.33984375 C-27.550625 7.33984375 -28.210625 7.33984375 -28.890625 7.33984375 C-29.220625 6.01984375 -29.550625 4.69984375 -29.890625 3.33984375 C-30.674375 3.54609375 -31.458125 3.75234375 -32.265625 3.96484375 C-33.131875 4.08859375 -33.998125 4.21234375 -34.890625 4.33984375 C-35.550625 3.67984375 -36.210625 3.01984375 -36.890625 2.33984375 C-38.97395833 2.50651042 -38.97395833 2.50651042 -40.890625 3.33984375 C-41.220625 3.99984375 -41.550625 4.65984375 -41.890625 5.33984375 C-44.20028348 6.39337218 -46.5336024 7.39703471 -48.890625 8.33984375 C-48.560625 9.65984375 -48.230625 10.97984375 -47.890625 12.33984375 C-44.920625 12.66984375 -41.950625 12.99984375 -38.890625 13.33984375 C-38.890625 13.66984375 -38.890625 13.99984375 -38.890625 14.33984375 C-40.51553454 14.36682564 -42.14057133 14.38623132 -43.765625 14.40234375 C-45.12300781 14.41974609 -45.12300781 14.41974609 -46.5078125 14.4375 C-48.890625 14.33984375 -48.890625 14.33984375 -50.890625 13.33984375 C-50.890625 11.35984375 -50.890625 9.37984375 -50.890625 7.33984375 C-49.570625 7.00984375 -48.250625 6.67984375 -46.890625 6.33984375 C-46.890625 5.67984375 -46.890625 5.01984375 -46.890625 4.33984375 C-45.570625 4.33984375 -44.250625 4.33984375 -42.890625 4.33984375 C-42.560625 3.01984375 -42.230625 1.69984375 -41.890625 0.33984375 C-39.89107754 0.29730019 -37.89020864 0.29903592 -35.890625 0.33984375 C-35.560625 0.66984375 -35.230625 0.99984375 -34.890625 1.33984375 C-31.18272947 1.9016461 -29.75552972 1.26124286 -26.453125 -0.66015625 C-18.42067672 -4.91173568 -8.04387331 -3.69334706 0 0 Z " fill="#EAC2A4" transform="translate(60.890625,34.66015625)"/>
<path d="M0 0 C3.97400317 2.3844019 6.771436 5.24955556 9.4453125 9.0546875 C10.1053125 9.7146875 10.7653125 10.3746875 11.4453125 11.0546875 C11.640625 13.21875 11.640625 13.21875 11.5703125 15.6796875 C11.55226562 16.49695313 11.53421875 17.31421875 11.515625 18.15625 C11.49242187 18.78273438 11.46921875 19.40921875 11.4453125 20.0546875 C12.04988281 20.15910156 12.65445313 20.26351562 13.27734375 20.37109375 C16.78231705 21.47626551 18.28942377 24.19959161 20.4453125 27.0546875 C21.63548241 29.43502732 21.72523306 31.28087421 21.9453125 33.9296875 C22.31880179 38.56415943 22.31880179 38.56415943 23.4453125 43.0546875 C25.4290892 44.33905484 25.4290892 44.33905484 27.4453125 45.0546875 C27.5703125 47.9296875 27.5703125 47.9296875 27.4453125 51.0546875 C25.4453125 53.0546875 25.4453125 53.0546875 23.28125 53.25 C22.46914062 53.22679687 21.65703125 53.20359375 20.8203125 53.1796875 C20.00304687 53.16164062 19.18578125 53.14359375 18.34375 53.125 C17.71726562 53.10179687 17.09078125 53.07859375 16.4453125 53.0546875 C16.4453125 52.7246875 16.4453125 52.3946875 16.4453125 52.0546875 C19.0853125 51.7246875 21.7253125 51.3946875 24.4453125 51.0546875 C24.7753125 49.4046875 25.1053125 47.7546875 25.4453125 46.0546875 C23.9603125 45.0646875 23.9603125 45.0646875 22.4453125 44.0546875 C21.2578125 41.9296875 21.2578125 41.9296875 20.4453125 40.0546875 C18.4653125 40.3846875 16.4853125 40.7146875 14.4453125 41.0546875 C14.1978125 40.2503125 13.9503125 39.4459375 13.6953125 38.6171875 C13.2828125 37.7715625 12.8703125 36.9259375 12.4453125 36.0546875 C11.12043137 35.68920305 9.78512736 35.3609309 8.4453125 35.0546875 C6.0078125 32.8046875 6.0078125 32.8046875 3.4453125 30.0546875 C-4.2732963 22.14311348 -10.33118446 17.96529615 -21.5546875 17.6171875 C-27.7466465 17.72976857 -31.27131319 18.98072426 -36.5546875 22.0546875 C-40.42323598 22.59448496 -43.03070308 21.6656518 -46.5546875 20.0546875 C-45.5546875 17.0546875 -45.5546875 17.0546875 -43.6171875 15.4296875 C-40.50993406 14.03459412 -38.88350377 13.94160217 -35.5546875 13.8671875 C-31.7937167 13.6449941 -31.7937167 13.6449941 -28.97265625 11.359375 C-28.15259271 9.94834503 -27.3720322 8.51360716 -26.6328125 7.05859375 C-21.68788318 -2.13252488 -8.91122307 -3.29742505 0 0 Z " fill="#C2E5DE" transform="translate(67.5546875,14.9453125)"/>
<path d="M0 0 C2.85735658 1.81495057 4.71260388 3.97748226 6.73046875 6.66796875 C8.1656898 8.40812346 9.50942169 9.41434053 11.421875 10.58984375 C14.109375 12.33984375 14.109375 12.33984375 15.109375 15.33984375 C16.759375 15.66984375 18.409375 15.99984375 20.109375 16.33984375 C18.624375 16.83484375 18.624375 16.83484375 17.109375 17.33984375 C17.17125 18.55671875 17.233125 19.77359375 17.296875 21.02734375 C17.30378101 24.92233578 16.56999825 27.216745 14.109375 30.33984375 C13.119375 30.83484375 13.119375 30.83484375 12.109375 31.33984375 C14.749375 31.66984375 17.389375 31.99984375 20.109375 32.33984375 C20.109375 32.66984375 20.109375 32.99984375 20.109375 33.33984375 C17.139375 33.33984375 14.169375 33.33984375 11.109375 33.33984375 C11.604375 36.30984375 11.604375 36.30984375 12.109375 39.33984375 C10.484375 40.02734375 10.484375 40.02734375 8.109375 40.33984375 C2.83351293 38.06398168 2.83351293 38.06398168 1.109375 36.33984375 C-1.21880464 35.97223644 -3.5524635 35.63742794 -5.890625 35.33984375 C-5.890625 35.00984375 -5.890625 34.67984375 -5.890625 34.33984375 C0.61250709 33.87533432 4.5268558 35.01408763 10.109375 38.33984375 C9.820625 37.32921875 9.531875 36.31859375 9.234375 35.27734375 C9.109375 31.33984375 9.109375 31.33984375 10.37890625 29.52734375 C11.49209752 28.35940537 12.60799474 27.1940402 13.7265625 26.03125 C15.37982699 24.28849807 15.37982699 24.28849807 15.671875 21.21484375 C15.04204516 17.99571344 14.06043086 15.9662651 12.109375 13.33984375 C11.449375 13.00984375 10.789375 12.67984375 10.109375 12.33984375 C9.903125 13.51546875 9.696875 14.69109375 9.484375 15.90234375 C8.0430912 21.55738087 5.00708541 25.50091215 0.078125 28.62890625 C-3.18910823 30.32347871 -6.29758813 31.52542206 -9.890625 32.33984375 C-8.900625 32.99984375 -7.910625 33.65984375 -6.890625 34.33984375 C-7.58027344 34.22125 -8.26992188 34.10265625 -8.98046875 33.98046875 C-15.28765941 33.11528485 -19.30840874 33.33656563 -24.91796875 36.4296875 C-26.890625 37.33984375 -26.890625 37.33984375 -30.890625 37.33984375 C-30.82101563 36.69917969 -30.75140625 36.05851562 -30.6796875 35.3984375 C-30.25994258 30.1213727 -30.25994258 30.1213727 -32.19140625 25.36328125 C-33.27468325 24.23088191 -34.37363349 23.113253 -35.48828125 22.01171875 C-37.7761031 19.28417626 -37.74846755 16.82270134 -37.890625 13.33984375 C-35.890625 14.33984375 -35.890625 14.33984375 -35.21484375 16.046875 C-35.00472656 16.74167969 -34.79460938 17.43648437 -34.578125 18.15234375 C-33.45263805 21.45299459 -33.12180529 22.17696673 -30.140625 24.27734375 C-27.890625 26.33984375 -27.890625 26.33984375 -27.79296875 28.578125 C-28.05286861 30.86737991 -28.40474517 33.08844018 -28.890625 35.33984375 C-27.24355947 34.69715938 -25.59800325 34.05060573 -23.953125 33.40234375 C-22.57833984 32.86287109 -22.57833984 32.86287109 -21.17578125 32.3125 C-18.96643967 31.54022195 -18.96643967 31.54022195 -17.890625 30.33984375 C-15.8727174 30.06723362 -13.85107446 29.82209972 -11.828125 29.58984375 C-4.91815129 28.57344806 0.0637673 26.69637196 4.79296875 21.484375 C7.13866277 17.6630515 6.71462605 13.66809255 6.109375 9.33984375 C3.89971861 4.92053097 0.4056167 2.89255837 -4.0546875 1.0625 C-11.91141023 -0.93955745 -20.34575987 -0.55756989 -27.890625 2.33984375 C-27.560625 3.98984375 -27.230625 5.63984375 -26.890625 7.33984375 C-27.550625 7.33984375 -28.210625 7.33984375 -28.890625 7.33984375 C-29.220625 6.01984375 -29.550625 4.69984375 -29.890625 3.33984375 C-30.674375 3.54609375 -31.458125 3.75234375 -32.265625 3.96484375 C-33.131875 4.08859375 -33.998125 4.21234375 -34.890625 4.33984375 C-35.550625 3.67984375 -36.210625 3.01984375 -36.890625 2.33984375 C-38.97395833 2.50651042 -38.97395833 2.50651042 -40.890625 3.33984375 C-41.220625 3.99984375 -41.550625 4.65984375 -41.890625 5.33984375 C-44.20028348 6.39337218 -46.5336024 7.39703471 -48.890625 8.33984375 C-48.560625 9.65984375 -48.230625 10.97984375 -47.890625 12.33984375 C-44.920625 12.66984375 -41.950625 12.99984375 -38.890625 13.33984375 C-38.890625 13.66984375 -38.890625 13.99984375 -38.890625 14.33984375 C-40.51553454 14.36682564 -42.14057133 14.38623132 -43.765625 14.40234375 C-45.12300781 14.41974609 -45.12300781 14.41974609 -46.5078125 14.4375 C-48.890625 14.33984375 -48.890625 14.33984375 -50.890625 13.33984375 C-50.890625 11.35984375 -50.890625 9.37984375 -50.890625 7.33984375 C-49.570625 7.00984375 -48.250625 6.67984375 -46.890625 6.33984375 C-46.890625 5.67984375 -46.890625 5.01984375 -46.890625 4.33984375 C-45.570625 4.33984375 -44.250625 4.33984375 -42.890625 4.33984375 C-42.560625 3.01984375 -42.230625 1.69984375 -41.890625 0.33984375 C-39.89107754 0.29730019 -37.89020864 0.29903592 -35.890625 0.33984375 C-35.560625 0.66984375 -35.230625 0.99984375 -34.890625 1.33984375 C-31.18272947 1.9016461 -29.75552972 1.26124286 -26.453125 -0.66015625 C-18.42067672 -4.91173568 -8.04387331 -3.69334706 0 0 Z " fill="#654941" transform="translate(60.890625,34.66015625)"/>
<path d="M0 0 C3.54293666 1.86470351 5.77228817 3.09364418 7 7 C7.5 9.8125 7.5 9.8125 7 13 C5.5434932 14.83756962 3.95117677 16.48884462 2.3359375 18.1875 C0.23732466 21.03474081 0.58509241 23.61158802 1 27 C-2.37462715 26.45276317 -4.08235 25.9451 -7 24 C-9.82509322 23.94043478 -12.58768672 24.13089293 -15.40625 24.3203125 C-18 24 -18 24 -19.84375 21.9921875 C-20.41609375 21.00605469 -20.41609375 21.00605469 -21 20 C-19.824375 19.7525 -18.64875 19.505 -17.4375 19.25 C-10.98176614 17.6160709 -5.53225641 14.88709401 -2 9 C-1.12476635 6.02920694 -0.50566296 3.05393815 0 0 Z " fill="#F3B37B" transform="translate(70,46)"/>
<path d="M0 0 C1.875 0.3125 1.875 0.3125 4 1 C4.66 1.99 5.32 2.98 6 4 C6.78375 3.79375 7.5675 3.5875 8.375 3.375 C9.674375 3.189375 9.674375 3.189375 11 3 C13 5 13 5 13 8 C14.32 8.66 15.64 9.32 17 10 C16.125 14.875 16.125 14.875 15 16 C8.23330178 17.23030877 1.77703004 16.93724883 -5 16 C-4.67 15.34 -4.34 14.68 -4 14 C-3.34 14 -2.68 14 -2 14 C0.3992233 9.35150485 0.19957409 5.08913926 0 0 Z " fill="#F5F3E7" transform="translate(77,51)"/>
<path d="M0 0 C2.38564077 0.57584432 4.66682784 1.22227595 7 2 C7.99 2 8.98 2 10 2 C10.33 3.32 10.66 4.64 11 6 C11.66 6 12.32 6 13 6 C13.33 7.65 13.66 9.3 14 11 C6.58358973 12.98536647 -0.41560137 13.48807821 -8 12 C-8.66 11.34 -9.32 10.68 -10 10 C-9.875 8 -9.875 8 -9 6 C-6.41847698 4.27898465 -5.15081975 4 -2 4 C-1.34 2.68 -0.68 1.36 0 0 Z " fill="#F6F4E8" transform="translate(21,36)"/>
<path d="M0 0 C0 0.33 0 0.66 0 1 C-1.19496094 1.07347656 -1.19496094 1.07347656 -2.4140625 1.1484375 C-10.38157314 1.70029395 -10.38157314 1.70029395 -18 4 C-17.67 5.65 -17.34 7.3 -17 9 C-17.66 9 -18.32 9 -19 9 C-19.33 7.68 -19.66 6.36 -20 5 C-20.78375 5.20625 -21.5675 5.4125 -22.375 5.625 C-23.24125 5.74875 -24.1075 5.8725 -25 6 C-25.66 5.34 -26.32 4.68 -27 4 C-29.08333333 4.16666667 -29.08333333 4.16666667 -31 5 C-31.33 5.66 -31.66 6.32 -32 7 C-34.30965848 8.05352843 -36.6429774 9.05719096 -39 10 C-38.67 11.32 -38.34 12.64 -38 14 C-35.03 14.33 -32.06 14.66 -29 15 C-29 15.33 -29 15.66 -29 16 C-30.62490954 16.02698189 -32.24994633 16.04638757 -33.875 16.0625 C-35.23238281 16.07990234 -35.23238281 16.07990234 -36.6171875 16.09765625 C-39 16 -39 16 -41 15 C-41 13.02 -41 11.04 -41 9 C-39.68 8.67 -38.36 8.34 -37 8 C-37 7.34 -37 6.68 -37 6 C-35.68 6 -34.36 6 -33 6 C-32.67 4.68 -32.34 3.36 -32 2 C-30.00045254 1.95745644 -27.99958364 1.95919217 -26 2 C-25.67 2.33 -25.34 2.66 -25 3 C-21.3844424 3.54781176 -19.45010735 2.75761694 -16.4375 0.9375 C-11.09568938 -1.9846037 -5.81408717 -0.89149337 0 0 Z " fill="#7D665D" transform="translate(51,33)"/>
<path d="M0 0 C1.32 0.66 2.64 1.32 4 2 C4 2.66 4 3.32 4 4 C6.475 4.495 6.475 4.495 9 5 C8.01 5.33 7.02 5.66 6 6 C6.061875 7.216875 6.12375 8.43375 6.1875 9.6875 C6.19440601 13.58249203 5.46062325 15.87690125 3 19 C2.34 19.33 1.68 19.66 1 20 C3.64 20.33 6.28 20.66 9 21 C9 21.33 9 21.66 9 22 C6.03 22 3.06 22 0 22 C0.33 23.98 0.66 25.96 1 28 C-0.625 28.6875 -0.625 28.6875 -3 29 C-8.27586207 26.72413793 -8.27586207 26.72413793 -10 25 C-12.32817964 24.63239269 -14.6618385 24.29758419 -17 24 C-17 23.67 -17 23.34 -17 23 C-10.49686791 22.53549057 -6.5825192 23.67424388 -1 27 C-1.28875 25.989375 -1.5775 24.97875 -1.875 23.9375 C-2 20 -2 20 -0.73046875 18.1875 C0.38340054 17.01885026 1.4979867 15.85088338 2.61328125 14.68359375 C4.25056734 12.96166043 4.25056734 12.96166043 4.625 10 C3.7997608 6.03885183 2.17898531 3.40466454 0 0 Z " fill="#5C413B" transform="translate(72,46)"/>
<path d="M0 0 C1.98 0 3.96 0 6 0 C6 0.99 6 1.98 6 3 C7.65 3.33 9.3 3.66 11 4 C11 4.33 11 4.66 11 5 C9.72125 5.144375 8.4425 5.28875 7.125 5.4375 C4.74307106 5.70642746 3.15547309 5.92226346 1 7 C0.67 7.66 0.34 8.32 0 9 C-5.66153846 6.53846154 -5.66153846 6.53846154 -7.375 3.8125 C-7.58125 3.214375 -7.7875 2.61625 -8 2 C-5.36 1.67 -2.72 1.34 0 1 C0 0.67 0 0.34 0 0 Z " fill="#D3F1EC" transform="translate(35,77)"/>
<path d="M0 0 C2 1 2 1 2.67578125 2.70703125 C2.88589844 3.40183594 3.09601562 4.09664062 3.3125 4.8125 C4.43798695 8.11315084 4.76881971 8.83712298 7.75 10.9375 C10 13 10 13 10.09765625 15.23828125 C9.83775639 17.52753616 9.48587983 19.74859643 9 22 C10.62542193 21.35522931 12.25032424 20.70914857 13.875 20.0625 C14.77992187 19.70285156 15.68484375 19.34320313 16.6171875 18.97265625 C18.96137667 18.05098738 18.96137667 18.05098738 21 17 C21.66 17.66 22.32 18.32 23 19 C21.08717875 19.84212256 19.16957527 20.67338864 17.25 21.5 C16.18265625 21.9640625 15.1153125 22.428125 14.015625 22.90625 C11 24 11 24 7 24 C7.06960937 23.35933594 7.13921875 22.71867187 7.2109375 22.05859375 C7.63068242 16.78152895 7.63068242 16.78152895 5.69921875 12.0234375 C4.61594175 10.89103816 3.51699151 9.77340925 2.40234375 8.671875 C0.1145219 5.94433251 0.14215745 3.48285759 0 0 Z " fill="#65504B" transform="translate(23,48)"/>
<path d="M0 0 C1.65 0 3.3 0 5 0 C1.25572134 4.19813062 -1.8403063 6.07776117 -7 8 C-6.67 9.32 -6.34 10.64 -6 12 C-3.03 12.33 -0.06 12.66 3 13 C3 13.33 3 13.66 3 14 C1.37509046 14.02698189 -0.24994633 14.04638757 -1.875 14.0625 C-3.23238281 14.07990234 -3.23238281 14.07990234 -4.6171875 14.09765625 C-7 14 -7 14 -9 13 C-9 11.02 -9 9.04 -9 7 C-7.68 6.67 -6.36 6.34 -5 6 C-5 5.34 -5 4.68 -5 4 C-3.68 4 -2.36 4 -1 4 C-0.67 2.68 -0.34 1.36 0 0 Z " fill="#57403D" transform="translate(19,35)"/>
<path d="M0 0 C1.98 0 3.96 0 6 0 C6.33 0.99 6.66 1.98 7 3 C9.475 3.495 9.475 3.495 12 4 C12 4.33 12 4.66 12 5 C8.37 5 4.74 5 1 5 C1 4.34 1 3.68 1 3 C-1.97 3 -4.94 3 -8 3 C-8 2.67 -8 2.34 -8 2 C-5.36 1.67 -2.72 1.34 0 1 C0 0.67 0 0.34 0 0 Z " fill="#F3FBF9" transform="translate(67,21)"/>
<path d="M0 0 C1.98 0 3.96 0 6 0 C6 0.99 6 1.98 6 3 C7.65 3.33 9.3 3.66 11 4 C11 4.33 11 4.66 11 5 C7.7 5 4.4 5 1 5 C1 4.34 1 3.68 1 3 C-1.97 3 -4.94 3 -8 3 C-8 2.67 -8 2.34 -8 2 C-5.36 1.67 -2.72 1.34 0 1 C0 0.67 0 0.34 0 0 Z " fill="#F2FAF9" transform="translate(35,77)"/>
<path d="M0 0 C2 3 2 3 1.625 5.1875 C1.41875 5.785625 1.2125 6.38375 1 7 C-4.51831299 6.37291898 -4.51831299 6.37291898 -6.9375 4.5 C-9.8107887 2.41033549 -12.52015033 2.33460093 -16 2 C-16 1.67 -16 1.34 -16 1 C-9.49686791 0.53549057 -5.5825192 1.67424388 0 5 C-0.2784375 4.0409375 -0.2784375 4.0409375 -0.5625 3.0625 C-0.706875 2.381875 -0.85125 1.70125 -1 1 C-0.67 0.67 -0.34 0.34 0 0 Z " fill="#5F443D" transform="translate(71,68)"/>
<path d="M0 0 C2.19117105 3.28675658 2.09652576 4.23549534 2 8 C2.33 8.66 2.66 9.32 3 10 C1.68 10 0.36 10 -1 10 C-0.67 6.7 -0.34 3.4 0 0 Z " fill="#74655F" transform="translate(31,62)"/>
<path d="M0 0 C2 3 2 3 1.625 5.1875 C1.41875 5.785625 1.2125 6.38375 1 7 C-0.32 6.67 -1.64 6.34 -3 6 C-2.01 5.67 -1.02 5.34 0 5 C-0.2784375 4.0409375 -0.2784375 4.0409375 -0.5625 3.0625 C-0.706875 2.381875 -0.85125 1.70125 -1 1 C-0.67 0.67 -0.34 0.34 0 0 Z " fill="#6E5C54" transform="translate(71,68)"/>
</svg>
